HIERARCHY
ROOT pelvis
{
  OFFSET 0 100 0
  CHANNELS 6 Xposition Yposition Zposition Zrotation Xrotation Yrotation
  JOINT pelvis_right_femur
  {
    OFFSET -10.78128 -3.44521 -0.5502486
    CHANNELS 3 Zrotation Xrotation Yrotation
    JOINT right_femur_tibia
    {
      OFFSET -0.8047443 -44.0398 -0.1307829
      CHANNELS 3 Zrotation Xrotation Yrotation
      JOINT right_tibia_foot
      {
        OFFSET 3.006224 -47.83518 -5
        CHANNELS 3 Zrotation Xrotation Yrotation
        End Site
        {
          OFFSET 0 -5 15
        }
      }
    }
  }
  JOINT pelvis_left_femur
  {
    OFFSET 10.78128 -3.44521 -0.5502486
    CHANNELS 3 Zrotation Xrotation Yrotation
    JOINT left_femur_tibia
    {
      OFFSET 0.8047443 -44.0398 -0.1307829
      CHANNELS 3 Zrotation Xrotation Yrotation
      JOINT left_tibia_foot
      {
        OFFSET -4.370144 -48.10324 -4.275266
        CHANNELS 3 Zrotation Xrotation Yrotation
        End Site
        {
          OFFSET 0 -5 15
        }
      }
    }
  }
  JOINT pelvis_spine1
  {
    OFFSET 0 6.468898 -3.129235
    CHANNELS 3 Zrotation Xrotation Yrotation
    JOINT spine1
    {
      OFFSET 0 23.15396 4.99043
      CHANNELS 3 Zrotation Xrotation Yrotation
      JOINT spine2
      {
        OFFSET 0 20.79997 -5.064912
        CHANNELS 3 Zrotation Xrotation Yrotation
        JOINT neck
        {
          OFFSET 0 14.38658 9.616178
          CHANNELS 3 Zrotation Xrotation Yrotation
          End Site
          {
            OFFSET 0 20 0
          }
        }
      }
      JOINT right_manubrium
      {
        OFFSET -5.722621 16.35077 3.967754
        CHANNELS 3 Zrotation Xrotation Yrotation
        JOINT right_clavicle
        {
          OFFSET -13.16364 1.694482 -4.693211
          CHANNELS 3 Zrotation Xrotation Yrotation
          JOINT right_humerus
          {
            OFFSET -28.5034 -0.3100689 -2.792744
            CHANNELS 3 Zrotation Xrotation Yrotation
            JOINT right_radius
            {
              OFFSET -25.15693 0.02248979 -1.271978
              CHANNELS 3 Zrotation Xrotation Yrotation
              End Site
              {
                OFFSET -15 0 0
              }
            }
          }
        }
      }
      JOINT left_manubrium
      {
        OFFSET 5.722621 16.35077 3.967754
        CHANNELS 3 Zrotation Xrotation Yrotation
        JOINT left_clavicle
        {
          OFFSET 13.16364 1.694482 -4.693211
          CHANNELS 3 Zrotation Xrotation Yrotation
          JOINT left_humerus
          {
            OFFSET 29.39168 -1.063119 -2.237045
            CHANNELS 3 Zrotation Xrotation Yrotation
            JOINT left_radius
            {
              OFFSET 24.59957 -0.9528479 0.9047498
              CHANNELS 3 Zrotation Xrotation Yrotation
              End Site
              {
                OFFSET 15 -0 -0
              }
            }
          }
        }
      }
    }
  }
}
MOTION
Frames: 11
Frame Time: 0.0416666666667
0 103.5113 0 -0.1292756 -0.6401929 0.1374939 4.601175 -16.12234 8.931569 -1.439531e-09 35.8632 2.043194e-10 -7.183491 -18.22758 -3.62636 -5.682619 7.290391 -22.76168 4.846094e-09 5.068429 4.565772e-09 5.196983 -17.18037 24.15997 -2.829386 -2.485665 4.232294 2.512033 8.317138 -7.156169 1.572861 22.08119 6.408336 2.927159 -24.39212 9.196151 5.633263 -20.44062 11.17716 84.36862 34.74094 -16.4626 -3.952835e-09 -5.582976e-10 18.54625 -5.9922 7.981156 4.746782 4.723378 -17.90763 -1.715906 -96.84691 30.29936 26.02334 1.245748e-09 -5.635233e-10 -12.16325 2.775594 17.68107 10.67988
0.3451748 103.5297 1.482615 -0.05754207 -0.6714985 0.3791183 4.513947 -17.682 9.121762 -1.895872e-09 38.26933 3.065013e-10 -6.728065 -17.03356 -3.911456 -5.844804 9.01981 -22.91273 4.866706e-09 4.9803 3.987439e-09 5.312503 -17.63921 23.95704 -2.942327 -2.572179 4.082452 2.528352 8.475583 -7.40521 1.531757 21.98449 6.555631 2.943228 -24.40946 9.30715 5.84525 -20.22776 11.21399 85.04653 34.83166 -17.339 -4.202919e-09 -3.872387e-10 18.16909 -6.098416 8.255051 4.63725 4.682971 -18.07322 -1.882182 -96.50348 30.35532 25.54889 1.282461e-09 -5.327723e-10 -12.77969 2.655557 17.42081 10.93972
0.6896966 103.6141 3.052412 -0.02737431 -0.4927739 0.696937 4.505128 -19.44502 9.069958 -2.21488e-09 39.06142 4.465596e-10 -6.496875 -15.80239 -4.030038 -5.93666 10.57335 -22.84081 4.910349e-09 4.905154 3.35471e-09 5.405333 -18.10112 23.56741 -3.013995 -2.631287 3.927758 2.590821 8.605396 -7.684348 1.451379 21.85295 6.729361 3.015569 -24.52774 9.356554 6.002198 -19.99087 11.25179 85.71821 35.01886 -18.29894 -4.283992e-09 -2.591321e-10 17.58601 -6.307594 8.523215 4.621746 4.743288 -18.39765 -2.036541 -95.94863 30.28421 24.81601 1.233607e-09 -4.770972e-10 -13.78786 2.765468 17.15798 10.9421
1.018616 103.6911 4.785846 -0.03916943 -0.08996002 1.064227 4.548467 -21.365 8.745199 -2.363404e-09 38.10246 6.124274e-10 -6.486851 -14.52736 -3.957754 -5.970427 11.86152 -22.50673 4.987503e-09 4.851405 2.670962e-09 5.444168 -18.56992 22.98258 -3.049006 -2.644707 3.775491 2.695791 8.695453 -7.98478 1.3326 21.70759 6.939771 3.154662 -24.75339 9.348093 6.104609 -19.72387 11.29249 86.43828 35.33516 -19.33877 -4.176158e-09 -2.0808e-10 16.78891 -6.68375 8.801757 4.74853 4.919043 -18.88559 -2.166312 -95.23351 30.07082 23.80477 1.085497e-09 -3.988029e-10 -15.23098 3.105958 16.86683 10.70167
1.312389 103.6808 6.727284 -0.09996415 0.4795225 1.44703 4.656454 -23.37655 8.209674 -2.281466e-09 35.40532 7.480695e-10 -6.679873 -13.4179 -3.745398 -5.928145 12.90137 -21.96148 5.050102e-09 4.864585 2.067058e-09 5.405187 -19.02761 22.24664 -3.036462 -2.610295 3.622081 2.84058 8.717816 -8.28404 1.196555 21.54988 7.14687 3.326647 -25.02678 9.282251 6.129713 -19.41028 11.31305 87.08919 35.71052 -20.38223 -3.892446e-09 -2.207192e-10 15.82008 -7.111512 9.045852 4.94103 5.196179 -19.48012 -2.256843 -94.32345 29.76402 22.52128 8.711323e-10 -3.019917e-10 -16.98876 3.628413 16.58301 10.23402
1.563265 103.5353 8.920735 -0.1972072 1.171466 1.821122 4.772087 -25.25314 7.505844 -2.048693e-09 31.53861 8.964633e-10 -7.031607 -12.36912 -3.387389 -5.850909 13.57311 -21.22796 5.093874e-09 5.059347 1.50967e-09 5.280463 -19.39796 21.38744 -2.989912 -2.530793 3.48754 3.000375 8.692506 -8.555823 1.046031 21.38439 7.357424 3.534244 -25.33967 9.167701 6.112621 -19.06805 11.32315 87.63024 36.16501 -21.34487 -3.483336e-09 -3.18479e-10 14.74312 -7.626266 9.265814 5.22782 5.52876 -20.11789 -2.30411 -93.31039 29.36591 21.1074 5.952632e-10 -1.88161e-10 -18.899 4.263758 16.26851 9.639203
1.770182 103.2366 11.40616 -0.3089082 1.877709 2.171207 4.867054 -26.88456 6.722309 -1.728539e-09 27.18499 1.062001e-09 -7.428408 -11.32824 -2.964814 -5.765235 13.92824 -20.34695 5.063016e-09 5.62971 1.000243e-09 5.049956 -19.64189 20.4496 -2.920775 -2.410349 3.380591 3.151335 8.650299 -8.788553 0.8981774 21.23156 7.562032 3.755664 -25.63998 9.026271 6.074491 -18.69736 11.33015 88.11826 36.64175 -22.22084 -3.009203e-09 -4.786289e-10 13.6188 -8.239989 9.493879 5.588248 5.870258 -20.74684 -2.326617 -92.28194 28.89438 19.64574 2.883497e-10 -6.170459e-11 -20.83325 4.922754 15.89115 9.026156
1.937378 102.8081 14.20022 -0.4027231 2.426996 2.489144 4.93179 -28.10784 6.015784 -1.376844e-09 23.30235 1.211478e-09 -7.72572 -10.35276 -2.618724 -5.698212 14.06877 -19.4411 4.874972e-09 6.81926 6.28861e-10 4.690584 -19.72566 19.55354 -2.844839 -2.251532 3.305135 3.262883 8.610872 -8.954388 0.7886701 21.14609 7.733586 3.951208 -25.84742 8.898406 6.03646 -18.29423 11.33441 88.62659 37.04418 -22.97854 -2.55383e-09 -6.708631e-10 12.55147 -8.891679 9.734969 5.952714 6.157555 -21.27175 -2.338357 -91.40586 28.43863 18.26543 2.999449e-12 5.515609e-11 -22.54461 5.472434 15.46689 8.541273
2.082561 102.3599 17.31156 -0.4664745 2.759333 2.777174 4.972408 -28.65116 5.496721 -1.096607e-09 20.81684 1.335017e-09 -7.907929 -9.230336 -2.354121 -5.695634 13.90038 -18.56607 4.451147e-09 9.103904 3.549484e-10 4.214432 -19.47748 18.71115 -2.762329 -2.081755 3.290816 3.313593 8.636747 -9.038654 0.7131432 21.10831 7.877426 4.128484 -25.9789 8.783675 6.066297 -17.88675 11.36322 89.08547 37.39637 -23.56353 -2.203272e-09 -8.743433e-10 11.59893 -9.55849 9.999196 6.303179 6.294288 -21.62468 -2.359617 -90.76405 28.02763 17.20561 -2.531985e-10 1.662509e-10 -23.78434 5.833949 14.97694 8.306289
2.226835 102.0501 20.71431 -0.4992291 2.824369 3.040096 5.018681 -28.37584 5.241013 -9.314195e-10 20.20433 1.391696e-09 -8.000611 -7.92561 -2.181532 -5.760064 13.42893 -17.79533 3.741559e-09 12.65998 2.149723e-10 3.666622 -18.79668 17.9529 -2.662718 -1.929314 3.339947 3.294632 8.751059 -9.025618 0.6737023 21.08208 7.969818 4.272802 -26.01585 8.668604 6.174717 -17.48809 11.41269 89.29814 37.6579 -23.87699 -2.001795e-09 -1.047055e-09 10.79821 -10.12661 10.24218 6.564566 6.219197 -21.74609 -2.406424 -90.27799 27.69229 16.58394 -4.61488e-10 2.69487e-10 -24.33308 5.982219 14.46217 8.326683
2.384813 101.9959 24.41364 -0.5025019 2.605488 3.263137 5.119421 -27.17474 5.214463 -7.753673e-10 20.77033 1.350483e-09 -7.988702 -6.668229 -2.114963 -5.826929 12.43152 -17.01717 2.670017e-09 17.59195 3.524527e-10 3.002271 -17.65162 17.29054 -2.519863 -1.771923 3.490454 3.211325 8.960514 -8.91194 0.679138 21.1075 7.989756 4.371607 -25.94209 8.54207 6.306855 -17.14794 11.50084 89.40496 37.76842 -23.9343 -1.881412e-09 -1.173871e-09 10.21221 -10.69205 10.51857 6.783865 5.971885 -21.69552 -2.480715 -90.07272 27.37369 16.39579 -6.218679e-10 3.6642e-10 -24.31394 5.950777 13.91287 8.559382
